# xmcd
#
# Track frame offsets: 
#        150
#        11158
#        23648
#        33726
#        44955
#        55735
#        67316
#        81360
#        92929
#        104308
#        115401
#        128481
#        138392
#        148168
#        158295
#        170807
#        183538
#        197147
#        207749
#        219062
#        228782
#        239638
#
# Disc length: 3362 seconds
#
# Revision: 0
# Processed by: cddbd v1.5.2PL0 Copyright (c) Steve Scherf et al.
# Submitted via: ExactAudioCopy v1.1
#
DISCID=4d0d2016
DTITLE=Various Artist - All-Time Country Favourites 1965-1969 Disc 3
DYEAR=2011
DGENRE=Country
TTITLE0=Porter Waggoner and Dolly Parton - Just someone I used to know
TTITLE1=Glen Campbell - I wanna live
TTITLE2=Loretta Lynn - Fist City
TTITLE3='Little' Jimmy Dickens - May the bird of paradise fly up your 
TTITLE3=nose
TTITLE4=Charley Pride - The easy part's over
TTITLE5=Conway Twitty - Darling, you know I wouldn't lie to you
TTITLE6=Jim Reeves - This is it
TTITLE7=Wynn Stewart - It's such a pretty world today
TTITLE8=Sonny James - Take good care of her
TTITLE9=Connie Smith - Then and only then
TTITLE10=Jack Greene - Statue of a fool
TTITLE11=Eddy Arnold - What's he doing in my world
TTITLE12=Jimmy Dean - The first thing ev'ry morning ( and the last thi
TTITLE12=ng ev'ry night )
TTITLE13=David Houston - Have a little faith
TTITLE14=Marty Robbins - Tonight Carmen
TTITLE15=Tammy Wynette - Take me to your world
TTITLE16=Tom T. Hall - Ballad of forty dollars
TTITLE17=Jim Ed Brown and the Browns - Pop a top
TTITLE18=Faron Young - Wine me up
TTITLE19=Jeannie C. Riley - The girl most likely to
TTITLE20=Johnny Cash - Daddy sang bass
TTITLE21=Waylon Jennings - Brown eyed handsome man
EXTD=
EXTT0=
EXTT1=
EXTT2=
EXTT3=
EXTT4=
EXTT5=
EXTT6=
EXTT7=
EXTT8=
EXTT9=
EXTT10=
EXTT11=
EXTT12=
EXTT13=
EXTT14=
EXTT15=
EXTT16=
EXTT17=
EXTT18=
EXTT19=
EXTT20=
EXTT21=
PLAYORDER=
